<svg width="48" height="48" viewBox="0 0 48 48" fill="none" xmlns="http://www.w3.org/2000/svg">
<path d="M40 40H8C6.93913 40 5.92172 39.5786 5.17157 38.8284C4.42143 38.0783 4 37.0609 4 36V12C4 10.9391 4.42143 9.92172 5.17157 9.17157C5.92172 8.42143 6.93913 8 8 8H40C41.0609 8 42.0783 8.42143 42.8284 9.17157C43.5786 9.92172 44 10.9391 44 12V36C44 37.0609 43.5786 38.0783 42.8284 38.8284C42.0783 39.5786 41.0609 40 40 40ZM8 12V36H40V12H8Z" fill="#1F2A37"/>
<path d="M17 25C15.8133 25 14.6533 24.6481 13.6666 23.9888C12.6799 23.3295 11.9108 22.3925 11.4567 21.2961C11.0026 20.1997 10.8838 18.9933 11.1153 17.8295C11.3468 16.6656 11.9182 15.5965 12.7574 14.7574C13.5965 13.9182 14.6656 13.3468 15.8295 13.1153C16.9933 12.8838 18.1997 13.0026 19.2961 13.4567C20.3925 13.9108 21.3295 14.6799 21.9888 15.6666C22.6481 16.6533 23 17.8133 23 19C23 20.5913 22.3679 22.1174 21.2426 23.2426C20.1174 24.3679 18.5913 25 17 25ZM17 17C16.6044 17 16.2178 17.1173 15.8889 17.3371C15.56 17.5568 15.3036 17.8692 15.1522 18.2346C15.0009 18.6001 14.9613 19.0022 15.0384 19.3902C15.1156 19.7781 15.3061 20.1345 15.5858 20.4142C15.8655 20.6939 16.2219 20.8844 16.6098 20.9616C16.9978 21.0387 17.3999 20.9991 17.7654 20.8478C18.1308 20.6964 18.4432 20.44 18.6629 20.1111C18.8827 19.7822 19 19.3956 19 19C19 18.4696 18.7893 17.9609 18.4142 17.5858C18.0391 17.2107 17.5304 17 17 17Z" fill="#1F2A37"/>
<path d="M11.312 34.228C11.0952 34.2283 10.8798 34.1939 10.674 34.126C10.173 33.9568 9.7593 33.5961 9.52355 33.1227C9.28779 32.6493 9.24912 32.1018 9.416 31.6C9.94781 30.015 10.9628 28.6364 12.3185 27.6579C13.6741 26.6795 15.3022 26.1503 16.9741 26.1448C18.6459 26.1393 20.2775 26.6577 21.6396 27.6272C23.0016 28.5967 24.0257 29.9685 24.568 31.55C24.6534 31.7985 24.6889 32.0613 24.6727 32.3235C24.6565 32.5857 24.5888 32.8422 24.4735 33.0782C24.3581 33.3143 24.1974 33.5253 24.0006 33.6992C23.8037 33.8732 23.5745 34.0066 23.326 34.092C23.0775 34.1774 22.8147 34.2129 22.5525 34.1967C22.2903 34.1805 22.0338 34.1128 21.7978 33.9975C21.3211 33.7645 20.9564 33.3518 20.784 32.85C20.513 32.0592 20.001 31.3732 19.32 30.8884C18.6391 30.4036 17.8233 30.1442 16.9874 30.1469C16.1515 30.1495 15.3374 30.414 14.6595 30.9032C13.9816 31.3923 13.474 32.0815 13.208 32.874C13.073 33.2695 12.8176 33.6127 12.4775 33.8556C12.1375 34.0984 11.7299 34.2287 11.312 34.228Z" fill="#1F2A37"/>
<path d="M36 20H30C29.4696 20 28.9609 19.7893 28.5858 19.4142C28.2107 19.0391 28 18.5304 28 18C28 17.4696 28.2107 16.9609 28.5858 16.5858C28.9609 16.2107 29.4696 16 30 16H36C36.5304 16 37.0391 16.2107 37.4142 16.5858C37.7893 16.9609 38 17.4696 38 18C38 18.5304 37.7893 19.0391 37.4142 19.4142C37.0391 19.7893 36.5304 20 36 20Z" fill="#1F2A37"/>
<path d="M36 26H30C29.4696 26 28.9609 25.7893 28.5858 25.4142C28.2107 25.0391 28 24.5304 28 24C28 23.4696 28.2107 22.9609 28.5858 22.5858C28.9609 22.2107 29.4696 22 30 22H36C36.5304 22 37.0391 22.2107 37.4142 22.5858C37.7893 22.9609 38 23.4696 38 24C38 24.5304 37.7893 25.0391 37.4142 25.4142C37.0391 25.7893 36.5304 26 36 26Z" fill="#1F2A37"/>
<path d="M36 32H30C29.4696 32 28.9609 31.7893 28.5858 31.4142C28.2107 31.0391 28 30.5304 28 30C28 29.4696 28.2107 28.9609 28.5858 28.5858C28.9609 28.2107 29.4696 28 30 28H36C36.5304 28 37.0391 28.2107 37.4142 28.5858C37.7893 28.9609 38 29.4696 38 30C38 30.5304 37.7893 31.0391 37.4142 31.4142C37.0391 31.7893 36.5304 32 36 32Z" fill="#1F2A37"/>
</svg>
