<svg width="22" height="22" viewBox="0 0 22 22" fill="none" xmlns="http://www.w3.org/2000/svg">
<path d="M11 1.8335C9.18699 1.8335 7.41471 2.37111 5.90726 3.37836C4.39981 4.3856 3.22489 5.81724 2.53109 7.49223C1.83728 9.16722 1.65575 11.0103 2.00945 12.7885C2.36315 14.5666 3.23619 16.2 4.51817 17.482C5.80015 18.764 7.4335 19.637 9.21166 19.9907C10.9898 20.3444 12.8329 20.1629 14.5079 19.4691C16.1829 18.7753 17.6145 17.6003 18.6218 16.0929C19.629 14.5854 20.1666 12.8132 20.1666 11.0002C20.164 8.56983 19.1974 6.2398 17.4788 4.5213C15.7603 2.80279 13.4303 1.83617 11 1.8335ZM14.6502 14.6503C14.4783 14.8222 14.2451 14.9187 14.0021 14.9187C13.759 14.9187 13.5259 14.8222 13.354 14.6503L10.3528 11.6492C10.1813 11.4765 10.0846 11.2435 10.0833 11.0002V7.3335C10.0833 7.09038 10.1799 6.85722 10.3518 6.68531C10.5237 6.51341 10.7569 6.41683 11 6.41683C11.2431 6.41683 11.4763 6.51341 11.6482 6.68531C11.8201 6.85722 11.9166 7.09038 11.9166 7.3335V10.6207L14.6502 13.3542C14.822 13.5261 14.9185 13.7592 14.9185 14.0022C14.9185 14.2453 14.822 14.4784 14.6502 14.6503Z" fill="#EBF5FF"/>
</svg>
