<svg width="48" height="48" viewBox="0 0 48 48" fill="none" xmlns="http://www.w3.org/2000/svg">
<path d="M24 4C19.7579 4.00436 15.6909 5.6316 12.6913 8.52468C9.6917 11.4178 8.00455 15.3404 8.00003 19.4318C7.99356 22.7325 9.09608 25.9465 11.1424 28.5921C11.1811 28.657 11.2238 28.7195 11.2704 28.7794L22.2933 43.1659C22.4917 43.4246 22.7502 43.6348 23.0481 43.7797C23.346 43.9245 23.6749 44 24.0085 44C24.3421 44 24.6711 43.9245 24.969 43.7797C25.2668 43.6348 25.5253 43.4246 25.7237 43.1659L36.7381 28.7794C36.7847 28.7202 36.8274 28.6584 36.8661 28.5942C38.9094 25.9467 40.0089 22.7322 39.9999 19.4318C39.9954 15.3404 38.3083 11.4178 35.3087 8.52468C32.3091 5.6316 28.2421 4.00436 24 4ZM33.3034 26.3041C33.2447 26.3787 33.1913 26.4571 33.1434 26.5387L24 38.4726L14.8587 26.5387C14.8094 26.4569 14.7552 26.3779 14.6965 26.302C13.1184 24.3356 12.2635 21.9185 12.2667 19.4318C12.2667 16.4304 13.5029 13.552 15.7033 11.4297C17.9037 9.30744 20.8881 8.11515 24 8.11515C27.1119 8.11515 30.0963 9.30744 32.2967 11.4297C34.4971 13.552 35.7333 16.4304 35.7333 19.4318C35.7369 21.9192 34.8821 24.3371 33.3034 26.3041Z" fill="#1F2A37"/>
<path d="M24 11.4525C22.3123 11.4525 20.6624 11.9352 19.2591 12.8396C17.8558 13.7439 16.7621 15.0293 16.1162 16.5332C15.4704 18.0371 15.3014 19.692 15.6306 21.2885C15.9599 22.885 16.7726 24.3515 17.966 25.5025C19.1594 26.6536 20.6799 27.4374 22.3352 27.755C23.9905 28.0726 25.7063 27.9096 27.2655 27.2866C28.8248 26.6637 30.1575 25.6088 31.0952 24.2553C32.0328 22.9019 32.5333 21.3106 32.5333 19.6828C32.5305 17.5009 31.6305 15.409 30.0308 13.8661C28.4311 12.3232 26.2623 11.4553 24 11.4525ZM24 23.798C23.1561 23.798 22.3312 23.5566 21.6296 23.1044C20.9279 22.6523 20.381 22.0096 20.0581 21.2576C19.7352 20.5057 19.6507 19.6783 19.8153 18.88C19.9799 18.0817 20.3863 17.3485 20.983 16.773C21.5797 16.1975 22.34 15.8055 23.1676 15.6468C23.9953 15.488 24.8531 15.5695 25.6328 15.8809C26.4124 16.1924 27.0788 16.7198 27.5476 17.3966C28.0164 18.0733 28.2666 18.8689 28.2666 19.6828C28.2666 20.7742 27.8171 21.8209 27.017 22.5927C26.2168 23.3644 25.1316 23.798 24 23.798Z" fill="#1F2A37"/>
</svg>
