<svg width="22" height="22" viewBox="0 0 22 22" fill="none" xmlns="http://www.w3.org/2000/svg">
<path d="M10.9998 1.8335C9.66291 1.83219 8.3511 2.19676 7.20654 2.8877C6.06199 3.57865 5.12833 4.56962 4.50672 5.75326C3.8851 6.9369 3.59924 8.26808 3.6801 9.60257C3.76096 10.9371 4.20545 12.224 4.96543 13.3239C4.99585 13.3837 5.03273 13.4399 5.07543 13.4917L5.18543 13.6255C5.28809 13.7584 5.39351 13.8867 5.48426 13.9922L10.2922 19.835C10.3784 19.939 10.4865 20.0228 10.6089 20.0801C10.7312 20.1375 10.8647 20.1671 10.9998 20.1668C11.1353 20.1669 11.2692 20.1369 11.3917 20.0791C11.5142 20.0212 11.6224 19.9369 11.7084 19.8322L16.3761 14.1443C16.5652 13.941 16.7421 13.7268 16.9059 13.5027L17.0223 13.3606C17.0667 13.3067 17.1042 13.2476 17.1342 13.1846C17.8586 12.0785 18.2705 10.7971 18.3262 9.47608C18.382 8.15505 18.0795 6.84353 17.4509 5.68032C16.8223 4.51711 15.8909 3.54549 14.7553 2.86831C13.6196 2.19113 12.322 1.83358 10.9998 1.8335ZM10.9998 6.41683C11.5437 6.41683 12.0754 6.57812 12.5277 6.88029C12.9799 7.18247 13.3324 7.61196 13.5405 8.11445C13.7487 8.61695 13.8031 9.16988 13.697 9.70333C13.5909 10.2368 13.329 10.7268 12.9444 11.1114C12.5598 11.496 12.0698 11.7579 11.5363 11.864C11.0029 11.9701 10.45 11.9156 9.94746 11.7075C9.44497 11.4994 9.01548 11.1469 8.7133 10.6947C8.41113 10.2424 8.24984 9.71073 8.24984 9.16683C8.24984 8.43749 8.53958 7.73801 9.0553 7.22229C9.57102 6.70656 10.2705 6.41683 10.9998 6.41683Z" fill="#EBF5FF"/>
</svg>
