<svg width="22" height="22" viewBox="0 0 22 22" fill="none" xmlns="http://www.w3.org/2000/svg">
<path d="M18.2368 2.75H3.76314C3.25132 2.75 2.76046 2.95451 2.39855 3.31854C2.03663 3.68258 1.83331 4.17631 1.83331 4.69113V13.4262C1.83331 13.9411 2.03663 14.4348 2.39855 14.7988C2.76046 15.1629 3.25132 15.3674 3.76314 15.3674H5.69296V18.2791C5.69289 18.462 5.7442 18.6411 5.84096 18.796C5.93773 18.9508 6.07602 19.075 6.23989 19.1542C6.40377 19.2334 6.58656 19.2645 6.76721 19.2437C6.94786 19.223 7.11901 19.1514 7.26094 19.0371L11.8211 15.3674H18.2368C18.7486 15.3674 19.2395 15.1629 19.6014 14.7988C19.9633 14.4348 20.1666 13.9411 20.1666 13.4262V4.69113C20.1666 4.17631 19.9633 3.68258 19.6014 3.31854C19.2395 2.95451 18.7486 2.75 18.2368 2.75ZM7.14033 10.5145C6.85407 10.5145 6.57423 10.4292 6.33622 10.2692C6.0982 10.1092 5.91268 9.88184 5.80314 9.61581C5.69359 9.34979 5.66493 9.05707 5.72077 8.77466C5.77662 8.49225 5.91447 8.23285 6.11689 8.02924C6.3193 7.82564 6.5772 7.68698 6.85796 7.63081C7.13872 7.57463 7.42974 7.60346 7.69421 7.71365C7.95869 7.82384 8.18473 8.01044 8.34377 8.24986C8.50281 8.48927 8.5877 8.77074 8.5877 9.05868C8.5877 9.4448 8.43521 9.8151 8.16377 10.0881C7.89234 10.3612 7.5242 10.5145 7.14033 10.5145ZM11 10.5145C10.7137 10.5145 10.4339 10.4292 10.1959 10.2692C9.95785 10.1092 9.77233 9.88184 9.66279 9.61581C9.55324 9.34979 9.52457 9.05707 9.58042 8.77466C9.63627 8.49225 9.77412 8.23285 9.97653 8.02924C10.179 7.82564 10.4368 7.68698 10.7176 7.63081C10.9984 7.57463 11.2894 7.60346 11.5539 7.71365C11.8183 7.82384 12.0444 8.01044 12.2034 8.24986C12.3625 8.48927 12.4473 8.77074 12.4473 9.05868C12.4473 9.4448 12.2949 9.8151 12.0234 10.0881C11.752 10.3612 11.3838 10.5145 11 10.5145ZM14.8596 10.5145C14.5734 10.5145 14.2935 10.4292 14.0555 10.2692C13.8175 10.1092 13.632 9.88184 13.5224 9.61581C13.4129 9.34979 13.3842 9.05707 13.4401 8.77466C13.4959 8.49225 13.6338 8.23285 13.8362 8.02924C14.0386 7.82564 14.2965 7.68698 14.5773 7.63081C14.858 7.57463 15.149 7.60346 15.4135 7.71365C15.678 7.82384 15.904 8.01044 16.0631 8.24986C16.2221 8.48927 16.307 8.77074 16.307 9.05868C16.307 9.4448 16.1545 9.8151 15.8831 10.0881C15.6116 10.3612 15.2435 10.5145 14.8596 10.5145Z" fill="#EBF5FF"/>
</svg>
