<svg width="48" height="48" viewBox="0 0 48 48" fill="none" xmlns="http://www.w3.org/2000/svg">
<path d="M24 33.9999V41.9999M28.61 15.0599L30.456 14.2959M30.456 9.70391L28.61 8.93791M33.704 6.45591L32.938 4.60791M33.704 17.5439L32.938 19.3899M38.296 6.45591L39.062 4.60791M39.06 19.3919L38.296 17.5439M41.544 9.70391L43.392 8.93791M41.544 14.2959L43.392 15.0619M44 25.9999V29.9999C44 31.0608 43.5786 32.0782 42.8284 32.8283C42.0783 33.5785 41.0609 33.9999 40 33.9999H8C6.93913 33.9999 5.92172 33.5785 5.17157 32.8283C4.42143 32.0782 4 31.0608 4 29.9999V9.99991C4 8.93904 4.42143 7.92163 5.17157 7.17148C5.92172 6.42134 6.93913 5.99991 8 5.99991H22M16 41.9999H32M42 11.9999C42 15.3136 39.3137 17.9999 36 17.9999C32.6863 17.9999 30 15.3136 30 11.9999C30 8.6862 32.6863 5.99991 36 5.99991C39.3137 5.99991 42 8.6862 42 11.9999Z" stroke="#233876" stroke-width="2" stroke-linecap="round" stroke-linejoin="round"/>
</svg>
