<svg width="22" height="22" viewBox="0 0 22 22" fill="none" xmlns="http://www.w3.org/2000/svg">
<path d="M10.6305 13.5465C11.014 13.9288 11.5335 14.1434 12.075 14.1434C12.6166 14.1434 13.136 13.9288 13.5196 13.5465L14.2418 12.8243C14.6254 12.4421 15.1448 12.2274 15.6864 12.2274C16.2279 12.2274 16.7474 12.4421 17.1309 12.8243L18.5755 14.2687C18.7867 14.4455 18.9565 14.6664 19.0731 14.916C19.1896 15.1655 19.25 15.4376 19.25 15.713C19.25 15.9884 19.1896 16.2605 19.0731 16.51C18.9565 16.7596 18.7867 16.9805 18.5755 17.1573C14.7928 20.9404 10.4386 19.1433 6.64455 15.3499C2.85055 11.5564 1.0624 7.20694 4.84609 3.42383C5.02303 3.21283 5.24406 3.04316 5.49363 2.92674C5.7432 2.81033 6.01524 2.75 6.29064 2.75C6.56603 2.75 6.83808 2.81033 7.08765 2.92674C7.33722 3.04316 7.55824 3.21283 7.73519 3.42383L9.17974 4.86816C9.56232 5.2515 9.77719 5.77093 9.77719 6.31249C9.77719 6.85404 9.56232 7.37347 9.17974 7.75682L8.45746 8.47898C8.07487 8.86232 7.86 9.38176 7.86 9.92331C7.86 10.4649 8.07487 10.9843 8.45746 11.3676L10.6305 13.5465Z" fill="#EBF5FF"/>
</svg>
