<svg width="48" height="48" viewBox="0 0 48 48" fill="none" xmlns="http://www.w3.org/2000/svg">
<path d="M14.5799 42C14.1781 41.9988 13.7814 41.9063 13.4173 41.729C13.0532 41.5517 12.7305 41.2937 12.4716 40.9731C12.2128 40.6525 12.024 40.277 11.9184 39.8726C11.8127 39.4681 11.7928 39.0446 11.86 38.6313L13.4135 29.1844L6.83238 22.4977C6.46382 22.1222 6.20325 21.6467 6.0801 21.1248C5.95695 20.603 5.97612 20.0556 6.13544 19.5445C6.29476 19.0334 6.5879 18.5789 6.98174 18.2325C7.37558 17.886 7.85444 17.6613 8.36425 17.5837L17.4565 16.2054L21.5229 7.60722C21.7507 7.12484 22.1035 6.71863 22.5413 6.43459C22.979 6.15054 23.4842 6 23.9998 6C24.5153 6 25.0205 6.15054 25.4583 6.43459C25.896 6.71863 26.2488 7.12484 26.4767 7.60722L30.5431 16.2017L39.6353 17.5799C40.1451 17.6571 40.6241 17.8815 41.018 18.2278C41.412 18.5741 41.7052 19.0284 41.8646 19.5394C42.0239 20.0505 42.0431 20.5978 41.9198 21.1196C41.7966 21.6414 41.5359 22.1168 41.1672 22.4921L34.5861 29.1844L36.1395 38.6294C36.2266 39.1592 36.1699 39.7039 35.9757 40.2018C35.7816 40.6997 35.4577 41.131 35.0408 41.4469C34.6239 41.7628 34.1306 41.9507 33.6166 41.9894C33.1027 42.0281 32.5886 41.916 32.1325 41.6658L23.9998 37.2061L15.867 41.6658C15.4704 41.8847 15.0286 41.9994 14.5799 42ZM10.5639 21.0406L16.2414 26.8165C16.5624 27.1423 16.8024 27.5448 16.9407 27.9891C17.0791 28.4334 17.1115 28.9062 17.0352 29.3665L15.696 37.5197L22.7163 33.6684C23.1126 33.4529 23.5529 33.3403 23.9998 33.3403C24.4467 33.3403 24.887 33.4529 25.2832 33.6684L32.3036 37.5178L30.9625 29.3665C30.8868 28.9059 30.9199 28.433 31.0589 27.9887C31.1978 27.5443 31.4384 27.142 31.7599 26.8165L37.4356 21.0425L29.589 19.8539C29.1463 19.7866 28.7258 19.6083 28.3637 19.3342C28.0015 19.0602 27.7086 18.6985 27.5099 18.2803L23.9998 10.8557L20.4914 18.2728C20.2931 18.6916 20.0003 19.0539 19.6381 19.3287C19.276 19.6034 18.8554 19.7823 18.4123 19.8501L10.5639 21.0406Z" fill="#1F2A37"/>
</svg>
